<?xml version="1.0" encoding="utf-8"?>
<!-- Generator: Adobe Illustrator 27.0.0, SVG Export Plug-In . SVG Version: 6.00 Build 0)  -->
<svg version="1.1" id="Layer_1" xmlns="http://www.w3.org/2000/svg" xmlns:xlink="http://www.w3.org/1999/xlink" x="0px" y="0px"
	 width="1920px" height="1080px" viewBox="0 0 1920 1080" style="enable-background:new 0 0 1920 1080;" xml:space="preserve">
<style type="text/css">
	.st0{fill:#171717;}
	.st1{clip-path:url(#SVGID_00000109719154553113861540000014569224573228272046_);}
	.st2{fill:#F0F0F0;}
	.st3{clip-path:url(#SVGID_00000097489166988265430480000009176733850106193326_);}
	.st4{fill:#F0F0F0;stroke:#F0F0F0;stroke-width:1.0003;stroke-miterlimit:10.0031;}
	.st5{clip-path:url(#SVGID_00000069399288779698775990000002097801098001606037_);}
	.st6{font-family:'IBMPlexSans-Bold';}
	.st7{font-size:14.0043px;}
	.st8{fill:#282828;stroke:#282828;stroke-width:1.0003;stroke-miterlimit:10.0031;}
	.st9{fill:none;stroke:#6F6F6F;stroke-width:0.7502;stroke-miterlimit:8.0025;}
	.st10{clip-path:url(#SVGID_00000170277477651155044650000008106633698585724859_);}
	.st11{fill:#006161;}
	.st12{fill:#FFFFFF;}
	.st13{font-family:'IBMPlexSans';}
	.st14{font-size:12.0037px;}
	.st15{fill:#757575;}
	.st16{fill:#F3F3F3;}
	.st17{font-size:9.0028px;}
	.st18{font-size:8.0025px;}
	.st19{fill:#282828;}
	.st20{fill:#FFFFFF;stroke:#000000;stroke-width:1.0303;stroke-linecap:round;stroke-miterlimit:10.0031;}
	.st21{fill:none;stroke:#000000;stroke-width:1.0303;stroke-linecap:round;stroke-linejoin:round;stroke-miterlimit:4.0012;}
	.st22{fill:#F3F3F3;stroke:#000000;stroke-width:1.0303;stroke-linecap:round;stroke-linejoin:round;stroke-miterlimit:4.0012;}
	.st23{fill:none;stroke:#000000;stroke-width:1.0303;stroke-linecap:round;stroke-miterlimit:10.0031;}
	.st24{fill:#F3F3F3;stroke:#000000;stroke-width:1.0303;stroke-miterlimit:10.0031;}
	.st25{fill-rule:evenodd;clip-rule:evenodd;fill:#0F6DFF;}
	.st26{fill-rule:evenodd;clip-rule:evenodd;fill:#A11950;}
	.st27{fill:none;stroke:#A5A5A5;stroke-width:0.7502;stroke-miterlimit:8.0025;}
	.st28{fill:none;stroke:#A5A5A5;stroke-width:1.0003;stroke-miterlimit:10.0031;}
</style>
<path class="st0" d="M451.2,335.7h363.7v478.8H451.2V335.7z"/>
<g>
	<defs>
		<rect id="SVGID_1_" x="451.2" y="335.7" width="363.7" height="478.8"/>
	</defs>
	<clipPath id="SVGID_00000038404127741909838320000013012651342714536124_">
		<use xlink:href="#SVGID_1_"  style="overflow:visible;"/>
	</clipPath>
	<g style="clip-path:url(#SVGID_00000038404127741909838320000013012651342714536124_);">
		<path class="st0" d="M451.2,335.7h363.7v478.8H451.2V335.7z"/>
		<path class="st0" d="M450.1,820.5l391.8,1.9V318.2l-391.8-1.9V820.5z"/>
	</g>
</g>
<g>
	<path class="st2" d="M855.2,335.6h612.3v478.9H855.2V335.6z"/>
	<g>
		<defs>
			<rect id="SVGID_00000145745616107670064280000000882785102614567071_" x="855.2" y="335.6" width="612.3" height="478.9"/>
		</defs>
		<clipPath id="SVGID_00000065796737844642621680000013169334788705588389_">
			<use xlink:href="#SVGID_00000145745616107670064280000000882785102614567071_"  style="overflow:visible;"/>
		</clipPath>
		<g style="clip-path:url(#SVGID_00000065796737844642621680000013169334788705588389_);">
			<path class="st4" d="M855.2,335.6h612.3v478.9H855.2V335.6z"/>
			<path class="st0" d="M853.3,820.5l659.5,1.9V318.1l-659.5-1.9V820.5z"/>
		</g>
	</g>
</g>
<g>
	<defs>
		<rect id="SVGID_00000039845691662890619130000006349314494473924227_" x="1114.6" y="303.7" width="36" height="24"/>
	</defs>
	<clipPath id="SVGID_00000013174189788413105380000002834803266425611965_">
		<use xlink:href="#SVGID_00000039845691662890619130000006349314494473924227_"  style="overflow:visible;"/>
	</clipPath>
	<g style="clip-path:url(#SVGID_00000013174189788413105380000002834803266425611965_);">
		
			<image style="overflow:visible;enable-background:new    ;" width="37" height="25" xlink:href="32F6C4B04CAC9EB9.png"  transform="matrix(0.9603 0 0 0.9603 1114.8193 303.6665)">
		</image>
	</g>
</g>
<text transform="matrix(1 0 0 1 1172.337 319.1712)" class="st6 st7">Germany</text>
<path class="st8" d="M1072.3,360.6h212.8v174.6h-212.8V360.6z"/>
<path class="st9" d="M1337.9,409.5h-52.8 M1337.9,695.1h-52.8"/>
<g>
	<defs>
		<rect id="SVGID_00000180368709600257513860000006362635624111060882_" x="563.8" y="304.7" width="36" height="23"/>
	</defs>
	<clipPath id="SVGID_00000115490789034436154340000015510637343661673397_">
		<use xlink:href="#SVGID_00000180368709600257513860000006362635624111060882_"  style="overflow:visible;"/>
	</clipPath>
	<g style="clip-path:url(#SVGID_00000115490789034436154340000015510637343661673397_);">
		
			<image style="overflow:visible;enable-background:new    ;" width="37" height="24" xlink:href="32F6C4B04CAC9EBF.png"  transform="matrix(0.9586 0 0 0.9586 564.0209 304.6668)">
		</image>
	</g>
</g>
<text transform="matrix(1 0 0 1 621.5079 319.6712)" class="st6 st7">United States</text>
<path class="st11" d="M477.5,414.1h105v46.5h-105V414.1z"/>
<text transform="matrix(1 0 0 1 496.2096 439.5882)" class="st12 st13 st14">Client App 1</text>
<path class="st15" d="M477.5,382.1h105v32h-105V382.1z"/>
<text transform="matrix(1 0 0 1 508.8536 401.0765)" class="st16 st13 st17">Fabric SDK</text>
<text transform="matrix(1 0 0 1 918.5197 537.3587)" class="st12 st6 st18">Ledger</text>
<path class="st19" d="M1039.7,560.2V452.5h-151v107.7h0v95.5h151L1039.7,560.2L1039.7,560.2z"/>
<text transform="matrix(1 0 0 1 911.5323 635.3382)" class="st12 st13 st17">Ordering Service Nodes</text>
<circle class="st16" cx="961.6" cy="596.3" r="23.6"/>
<path class="st16" d="M406.6,258.3"/>
<circle class="st20" cx="950.4" cy="609.5" r="2.6"/>
<circle class="st20" cx="945.1" cy="590.8" r="2.6"/>
<circle class="st20" cx="973.7" cy="609.5" r="2.5"/>
<circle class="st20" cx="962" cy="578.6" r="2.6"/>
<circle class="st20" cx="978.2" cy="590.8" r="2.6"/>
<path class="st9" d="M621.5,409.5h-39 M621.5,695.1h-38"/>
<text transform="matrix(1 0 0 1 906.3458 474.5589)" class="st12 st13 st14">Ordering Service Org</text>
<path class="st8" d="M621.9,613.2h159.5v174.6H621.9V613.2z"/>
<circle class="st16" cx="701.8" cy="644.2" r="23.6"/>
<path class="st21" d="M701.6,647.1v-20.3 M707.9,644v-17.2 M695.4,644v-17.2 M716.6,645.3l-14.9-8.6l-14.9,8.6v7.3l14.9,8.6
	l14.9-8.6V645.3"/>
<path class="st21" d="M686.8,645.3l14.9,8.6l14.9-8.6"/>
<circle class="st22" cx="701.6" cy="647.1" r="1.6"/>
<circle class="st22" cx="695.4" cy="644" r="1.6"/>
<circle class="st22" cx="707.9" cy="644" r="1.6"/>
<circle class="st16" cx="701.6" cy="731.7" r="24.8"/>
<path class="st16" d="M406.6,258.3"/>
<circle class="st23" cx="702.2" cy="731.7" r="19.7"/>
<circle class="st24" cx="689.1" cy="746.5" r="1.5"/>
<text transform="matrix(1 0 0 1 676.4088 768.7191)" class="st12 st13 st17">Org B Peer</text>
<circle class="st16" cx="962.1" cy="511.2" r="23.6"/>
<path class="st22" d="M961.9,514.1v-20.3 M968.2,511v-17.2 M955.7,511v-17.2"/>
<path class="st16" d="M976.9,512.3l-14.9-8.6l-14.9,8.6v7.3l14.9,8.6l14.9-8.6V512.3"/>
<path class="st21" d="M976.9,512.3l-14.9-8.6l-14.9,8.6v7.3l14.9,8.6l14.9-8.6V512.3"/>
<path class="st16" d="M947,512.3l14.9,8.6l14.9-8.6"/>
<path class="st21" d="M947,512.3l14.9,8.6l14.9-8.6"/>
<circle class="st22" cx="961.9" cy="514.1" r="1.6"/>
<circle class="st22" cx="955.7" cy="511" r="1.6"/>
<circle class="st22" cx="968.2" cy="511" r="1.6"/>
<path class="st8" d="M1072.1,613.3h212.8V788h-212.8V613.3z M621.5,360.6h159.8v174.6H621.5V360.6z"/>
<circle class="st16" cx="1176.9" cy="645.3" r="23.6"/>
<path class="st21" d="M1176.7,648.2v-20.3 M1183,645.1v-17.2 M1170.5,645.1v-17.2 M1191.7,646.4l-14.9-8.6l-14.9,8.6v7.3l14.9,8.6
	l14.9-8.6V646.4"/>
<path class="st21" d="M1161.9,646.4l14.9,8.6l14.9-8.6"/>
<circle class="st22" cx="1176.7" cy="648.2" r="1.6"/>
<circle class="st22" cx="1170.5" cy="645.1" r="1.6"/>
<circle class="st22" cx="1183" cy="645.1" r="1.6"/>
<circle class="st16" cx="1176.7" cy="732.8" r="24.8"/>
<path class="st16" d="M406.6,258.3"/>
<circle class="st23" cx="1177.3" cy="732.8" r="19.7"/>
<ellipse transform="matrix(0.8231 -0.5678 0.5678 0.8231 -218.6015 793.308)" class="st24" cx="1164.2" cy="747.6" rx="1.5" ry="1.5"/>
<text transform="matrix(1 0 0 1 1154.5109 768.7191)" class="st16 st13 st17">Org D Peer</text>
<circle class="st16" cx="1177.2" cy="392.6" r="23.6"/>
<path class="st21" d="M1177,395.5v-20.3 M1183.3,392.4v-17.2 M1170.8,392.4v-17.2 M1192,393.7l-14.9-8.6l-14.9,8.6v7.3l14.9,8.6
	l14.9-8.6V393.7"/>
<path class="st21" d="M1162.2,393.7l14.9,8.6l14.9-8.6"/>
<circle class="st22" cx="1177" cy="395.5" r="1.6"/>
<circle class="st22" cx="1170.8" cy="392.4" r="1.6"/>
<circle class="st22" cx="1183.3" cy="392.4" r="1.6"/>
<text transform="matrix(1 0 0 1 1135.34 427.7191)" class="st16 st13 st17">Certificate Authority</text>
<circle class="st16" cx="1177" cy="479.1" r="24.8"/>
<path class="st16" d="M406.6,258.3"/>
<circle class="st23" cx="1177.6" cy="479.1" r="19.7"/>
<ellipse transform="matrix(0.8231 -0.5678 0.5678 0.8231 -74.4926 748.6035)" class="st24" cx="1164.5" cy="493.9" rx="1.5" ry="1.5"/>
<text transform="matrix(1 0 0 1 1154.736 516.7186)" class="st16 st13 st17">Org C Peer</text>
<text transform="matrix(1 0 0 1 631.3912 379.1097)" class="st12 st13 st14">Org A</text>
<circle class="st16" cx="701.1" cy="391.6" r="23.6"/>
<path class="st21" d="M700.9,394.5v-20.3 M707.2,391.4v-17.2 M694.7,391.4v-17.2 M715.9,392.7l-14.9-8.6l-14.9,8.6v7.3l14.9,8.6
	l14.9-8.6V392.7"/>
<path class="st21" d="M686.1,392.7l14.9,8.6l14.9-8.6"/>
<circle class="st22" cx="700.9" cy="394.5" r="1.6"/>
<circle class="st22" cx="694.7" cy="391.4" r="1.6"/>
<circle class="st22" cx="707.2" cy="391.4" r="1.6"/>
<text transform="matrix(1 0 0 1 659.3397 427.7191)" class="st12 st13 st17">Certificate Authority</text>
<circle class="st16" cx="700.9" cy="479.1" r="24.8"/>
<path class="st16" d="M406.6,258.3"/>
<circle class="st23" cx="701.5" cy="479.1" r="19.7"/>
<ellipse transform="matrix(0.8231 -0.5678 0.5678 0.8231 -158.6855 478.233)" class="st24" cx="688.4" cy="493.9" rx="1.5" ry="1.5"/>
<text transform="matrix(1 0 0 1 678.6459 516.7186)" class="st12 st13 st17">Org A Peer</text>
<text transform="matrix(1 0 0 1 630.5109 631.6976)" class="st12 st13 st14">Org B</text>
<text transform="matrix(1 0 0 1 1082.0294 631.8069)" class="st12 st13 st14">Org D</text>
<text transform="matrix(1 0 0 1 1082.3292 379.1097)" class="st12 st13 st14">Org C</text>
<path class="st11" d="M478.5,687.8h105v46.5h-105V687.8z"/>
<text transform="matrix(1 0 0 1 497.2096 713.1224)" class="st12 st13 st14">Client App 2</text>
<path class="st15" d="M478.5,655.8h105v32h-105V655.8z"/>
<text transform="matrix(1 0 0 1 507.8531 674.8109)" class="st16 st13 st17">Fabric SDK</text>
<path class="st11" d="M1337.9,687.5h105V734h-105V687.5z"/>
<text transform="matrix(1 0 0 1 1356.674 712.7825)" class="st12 st13 st14">Client App 4</text>
<path class="st15" d="M1337.9,655.5h105v32h-105V655.5z"/>
<text transform="matrix(1 0 0 1 1367.3077 674.4808)" class="st16 st13 st17">Fabric SDK</text>
<path class="st11" d="M1336.9,406.2h105v46.5h-105L1336.9,406.2z"/>
<text transform="matrix(1 0 0 1 1355.674 431.5359)" class="st12 st13 st14">Client App 3</text>
<path class="st15" d="M1336.9,374.2h105v32h-105L1336.9,374.2z"/>
<text transform="matrix(1 0 0 1 1366.3068 393.2342)" class="st16 st13 st17">Fabric SDK</text>
<path class="st25" d="M1205.5,699.3h40.8v27.6c-20.4,0-20.4,10.5-40.8,4.5V699.3z"/>
<text transform="matrix(1 0 0 1 1208.2452 718.9339)" class="st12 st13 st17">Ledger X</text>
<path class="st26" d="M1205.5,734.3h40.8v27.6c-20.4,0-20.4,10.5-40.8,4.5V734.3z"/>
<text transform="matrix(1 0 0 1 1208.3351 753.9954)" class="st12 st13 st17">Ledger Y</text>
<path class="st25" d="M719.4,700.2h40.8v27.6c-20.4,0-20.4,10.5-40.8,4.5V700.2z"/>
<text transform="matrix(1 0 0 1 722.1388 719.8441)" class="st12 st13 st17">Ledger X</text>
<path class="st25" d="M718.7,446.6h40.8v27.6c-20.4,0-20.4,10.5-40.8,4.6V446.6z"/>
<text transform="matrix(1 0 0 1 721.4186 465.2562)" class="st12 st13 st17">Ledger X</text>
<path class="st25" d="M1205.8,445.6h40.8v27.6c-20.4,0-20.4,10.5-40.8,4.6V445.6z"/>
<text transform="matrix(1 0 0 1 1208.5245 465.2562)" class="st12 st13 st17">Ledger X</text>
<path class="st26" d="M978.2,580.4h40.8V608c-20.4,0-20.4,10.5-40.8,4.6V580.4z"/>
<text transform="matrix(1 0 0 1 980.9982 599.0775)" class="st12 st13 st17">Ledger Y</text>
<path class="st27" d="M1177.5,612.7v-76.9"/>
<path class="st28" d="M1126.3,574.2h-86.5"/>
<path class="st12" d="M1126.3,553.7h104v42h-104V553.7z"/>
<text transform="matrix(1 0 0 1 1151.171 579.1907)" class="st13 st14">Channel Y</text>
<path class="st26" d="M1205.8,480.6h40.8v27.6c-20.4,0-20.4,10.5-40.8,4.5V480.6z"/>
<text transform="matrix(1 0 0 1 1208.6154 500.2669)" class="st12 st13 st17">Ledger Y</text>
<text transform="matrix(1 0 0 1 659.3397 682.0483)" class="st12 st13 st17">Certificate Authority</text>
<text transform="matrix(1 0 0 1 1135.3396 681.9203)" class="st12 st13 st17">Certificate Authority</text>
<text transform="matrix(1 0 0 1 922.4459 549.7705)" class="st12 st13 st17">Certificate Authority</text>
</svg>
