<?xml version="1.0" encoding="utf-8"?>
<!-- Generator: Adobe Illustrator 27.0.0, SVG Export Plug-In . SVG Version: 6.00 Build 0)  -->
<svg version="1.1" id="Layer_1" xmlns="http://www.w3.org/2000/svg" xmlns:xlink="http://www.w3.org/1999/xlink" x="0px" y="0px"
	 width="1920px" height="1080px" viewBox="0 0 1920 1080" style="enable-background:new 0 0 1920 1080;" xml:space="preserve">
<style type="text/css">
	.st0{fill:#171717;}
	.st1{clip-path:url(#SVGID_00000054263815717907979150000004813389555741318528_);}
	.st2{fill:#F0F0F0;}
	.st3{clip-path:url(#SVGID_00000158021276186321257520000009196540150801532069_);}
	.st4{fill:#F0F0F0;stroke:#F0F0F0;stroke-width:1.0003;stroke-miterlimit:10.0031;}
	.st5{clip-path:url(#SVGID_00000103974631337191409860000001272269228582027173_);}
	.st6{font-family:'IBMPlexSans-Bold';}
	.st7{font-size:14.0043px;}
	.st8{fill:#282828;stroke:#282828;stroke-width:1.0003;stroke-miterlimit:10.0031;}
	.st9{fill:none;stroke:#6F6F6F;stroke-width:0.7502;stroke-miterlimit:8.0025;}
	.st10{clip-path:url(#SVGID_00000036237893116402310190000004342142200422496926_);}
	.st11{fill:#006161;}
	.st12{fill:#FFFFFF;}
	.st13{font-family:'IBMPlexSans';}
	.st14{font-size:12.0037px;}
	.st15{fill:#757575;}
	.st16{fill:#F3F3F3;}
	.st17{font-size:9.0028px;}
	.st18{font-size:8.0025px;}
	.st19{fill:#282828;}
	.st20{fill:#FFFFFF;stroke:#000000;stroke-width:1.0303;stroke-linecap:round;stroke-miterlimit:10.0031;}
	.st21{fill:none;stroke:#000000;stroke-width:1.0303;stroke-linecap:round;stroke-linejoin:round;stroke-miterlimit:4.0012;}
	.st22{fill:#F3F3F3;stroke:#000000;stroke-width:1.0303;stroke-linecap:round;stroke-linejoin:round;stroke-miterlimit:4.0012;}
	.st23{fill:none;stroke:#000000;stroke-width:1.0303;stroke-linecap:round;stroke-miterlimit:10.0031;}
	.st24{fill:#F3F3F3;stroke:#000000;stroke-width:1.0303;stroke-miterlimit:10.0031;}
	.st25{fill-rule:evenodd;clip-rule:evenodd;fill:#0F6DFF;}
	.st26{fill-rule:evenodd;clip-rule:evenodd;fill:#A11950;}
	.st27{fill:none;stroke:#A5A5A5;stroke-width:0.7502;stroke-miterlimit:8.0025;}
	.st28{fill:none;stroke:#A5A5A5;stroke-width:1.0003;stroke-miterlimit:10.0031;}
	.st29{font-size:11.0034px;}
</style>
<path class="st0" d="M458.3,335.7h559.9v478.8H458.3V335.7z"/>
<g>
	<defs>
		<rect id="SVGID_1_" x="458.3" y="335.7" width="559.9" height="478.8"/>
	</defs>
	<clipPath id="SVGID_00000021083654985450344930000017306818838563074204_">
		<use xlink:href="#SVGID_1_"  style="overflow:visible;"/>
	</clipPath>
	<g style="clip-path:url(#SVGID_00000021083654985450344930000017306818838563074204_);">
		<path class="st0" d="M458.3,335.7h559.9v478.8H458.3V335.7z"/>
		<path class="st0" d="M456.6,820.5l603.1,1.9V318.2l-603.1-1.9V820.5z"/>
	</g>
</g>
<g>
	<path class="st2" d="M1040,335.6h434.6v478.9H1040V335.6z"/>
	<g>
		<defs>
			<rect id="SVGID_00000093141883739441236720000010718262245921216418_" x="1040" y="335.6" width="434.6" height="478.9"/>
		</defs>
		<clipPath id="SVGID_00000020363565074708188070000006899335054687636633_">
			<use xlink:href="#SVGID_00000093141883739441236720000010718262245921216418_"  style="overflow:visible;"/>
		</clipPath>
		<g style="clip-path:url(#SVGID_00000020363565074708188070000006899335054687636633_);">
			<path class="st4" d="M1040,335.6h434.6v478.9H1040V335.6z"/>
			<path class="st0" d="M1038.7,820.5l468.1,1.9V318.1l-468.1-1.9L1038.7,820.5L1038.7,820.5z"/>
		</g>
	</g>
</g>
<g>
	<defs>
		<rect id="SVGID_00000005985671410029161690000010368394547474659717_" x="1206" y="303.7" width="36" height="24"/>
	</defs>
	<clipPath id="SVGID_00000041289540949344272760000008457090627991958960_">
		<use xlink:href="#SVGID_00000005985671410029161690000010368394547474659717_"  style="overflow:visible;"/>
	</clipPath>
	<g style="clip-path:url(#SVGID_00000041289540949344272760000008457090627991958960_);">
		
			<image style="overflow:visible;enable-background:new    ;" width="37" height="25" xlink:href="87FB4B7EE8331CC4.png"  transform="matrix(0.9603 0 0 0.9603 1206.2524 303.6665)">
		</image>
	</g>
</g>
<text transform="matrix(1 0 0 1 1263.7701 319.1712)" class="st6 st7">Germany</text>
<path class="st8" d="M1045,360.6h242v174.6h-242V360.6z"/>
<path class="st9" d="M1345,409.5h-52.8 M1345.1,695.1h-52.8"/>
<g>
	<defs>
		<rect id="SVGID_00000130616051913869417170000010260930053189365179_" x="660.5" y="304.7" width="36" height="23"/>
	</defs>
	<clipPath id="SVGID_00000142868298527182780010000005158287825108714647_">
		<use xlink:href="#SVGID_00000130616051913869417170000010260930053189365179_"  style="overflow:visible;"/>
	</clipPath>
	<g style="clip-path:url(#SVGID_00000142868298527182780010000005158287825108714647_);">
		
			<image style="overflow:visible;enable-background:new    ;" width="37" height="24" xlink:href="87FB4B7EE8331CC7.png"  transform="matrix(0.9586 0 0 0.9586 660.7357 304.6668)">
		</image>
	</g>
</g>
<text transform="matrix(1 0 0 1 718.2228 319.6712)" class="st6 st7">United States</text>
<path class="st9" d="M1079.4,409.5H966.2 M1079.4,694.7H788.5"/>
<path class="st11" d="M484.6,414.1h105v46.5h-105V414.1z"/>
<text transform="matrix(1 0 0 1 503.3468 439.5882)" class="st12 st13 st14">Client App 1</text>
<path class="st15" d="M484.6,382.1h105v32h-105V382.1z"/>
<text transform="matrix(1 0 0 1 516.0006 401.0765)" class="st16 st13 st17">Fabric SDK</text>
<path class="st12" d="M862.2,388.3h104v42h-104V388.3z"/>
<text transform="matrix(1 0 0 1 887.1051 413.8201)" class="st13 st14">Channel X</text>
<text transform="matrix(1 0 0 1 870.6891 537.3587)" class="st12 st6 st18">Ledger</text>
<path class="st19" d="M991.9,560.2V452.5h-151v203.2h151V560.2z"/>
<text transform="matrix(1 0 0 1 864.4615 631.3382)" class="st12 st13 st17">Ordering Service Nodes</text>
<circle class="st16" cx="913.8" cy="596.3" r="23.6"/>
<path class="st16" d="M413.7,258.3"/>
<circle class="st20" cx="902.6" cy="609.5" r="2.6"/>
<circle class="st20" cx="897.3" cy="590.8" r="2.6"/>
<ellipse transform="matrix(0.1602 -0.9871 0.9871 0.1602 175.9155 1425.825)" class="st20" cx="925.9" cy="609.5" rx="2.5" ry="2.5"/>
<circle class="st20" cx="914.2" cy="578.6" r="2.6"/>
<circle class="st20" cx="930.4" cy="590.8" r="2.6"/>
<path class="st9" d="M862.2,409.5h-73.7 M628.6,409.5h-39 M628.6,695.1h-38 M914,452.5v-22.1 M913.9,695.1v-39.4"/>
<text transform="matrix(1 0 0 1 858.526 474.5589)" class="st12 st13 st14">Ordering Service Org</text>
<path class="st8" d="M629.1,613.2h159.5v174.6H629.1V613.2z"/>
<circle class="st16" cx="708.9" cy="644.2" r="23.6"/>
<path class="st21" d="M708.8,647.1v-20.3 M715,644v-17.2 M702.5,644v-17.2 M723.7,645.3l-14.9-8.6l-14.9,8.6v7.3l14.9,8.6l14.9-8.6
	V645.3"/>
<path class="st21" d="M693.9,645.3l14.9,8.6l14.9-8.6"/>
<circle class="st22" cx="708.8" cy="647.1" r="1.6"/>
<circle class="st22" cx="702.5" cy="644" r="1.6"/>
<circle class="st22" cx="715" cy="644" r="1.6"/>
<circle class="st16" cx="708.8" cy="731.7" r="24.8"/>
<path class="st16" d="M413.7,258.3"/>
<circle class="st23" cx="709.3" cy="731.7" r="19.7"/>
<circle class="st24" cx="696.2" cy="746.5" r="1.5"/>
<text transform="matrix(1 0 0 1 686.5919 772.7191)" class="st12 st13 st17">Org B Peer</text>
<ellipse transform="matrix(0.1891 -0.982 0.982 0.1891 239.3387 1312.2896)" class="st16" cx="914.2" cy="511.2" rx="23.6" ry="23.6"/>
<path class="st22" d="M914.1,514.1v-20.3 M920.3,511v-17.2 M907.8,511v-17.2"/>
<path class="st16" d="M929,512.3l-14.9-8.6l-14.9,8.6v7.3l14.9,8.6l14.9-8.6V512.3"/>
<path class="st21" d="M929,512.3l-14.9-8.6l-14.9,8.6v7.3l14.9,8.6l14.9-8.6V512.3"/>
<path class="st16" d="M899.2,512.3l14.9,8.6l14.9-8.6"/>
<path class="st21" d="M899.2,512.3l14.9,8.6l14.9-8.6"/>
<circle class="st22" cx="914.1" cy="514.1" r="1.6"/>
<circle class="st22" cx="907.8" cy="511" r="1.6"/>
<circle class="st22" cx="920.3" cy="511" r="1.6"/>
<path class="st8" d="M1045,613.3h247V788h-247V613.3z M628.6,360.6h159.8v174.6H628.6V360.6z"/>
<circle class="st16" cx="1184" cy="645.3" r="23.6"/>
<path class="st21" d="M1183.9,648.2v-20.3 M1190.1,645.1v-17.2 M1177.6,645.1v-17.2 M1198.8,646.4l-14.9-8.6l-14.9,8.6v7.3l14.9,8.6
	l14.9-8.6V646.4"/>
<path class="st21" d="M1169,646.4l14.9,8.6l14.9-8.6"/>
<circle class="st22" cx="1183.9" cy="648.2" r="1.6"/>
<circle class="st22" cx="1177.6" cy="645.1" r="1.6"/>
<circle class="st22" cx="1190.1" cy="645.1" r="1.6"/>
<circle class="st16" cx="1183.9" cy="732.8" r="24.8"/>
<path class="st16" d="M413.7,258.3"/>
<circle class="st23" cx="1184.4" cy="732.8" r="19.7"/>
<ellipse transform="matrix(0.8231 -0.5678 0.5678 0.8231 -217.3392 797.3608)" class="st24" cx="1171.3" cy="747.6" rx="1.5" ry="1.5"/>
<text transform="matrix(1 0 0 1 1160.5104 772.7191)" class="st16 st13 st17">Org D Peer</text>
<circle class="st16" cx="1184.3" cy="392.6" r="23.6"/>
<path class="st21" d="M1184.2,395.5v-20.3 M1190.4,392.4v-17.2 M1177.9,392.4v-17.2 M1199.1,393.7l-14.9-8.6l-14.9,8.6v7.3l14.9,8.6
	l14.9-8.6V393.7"/>
<path class="st21" d="M1169.3,393.7l14.9,8.6l14.9-8.6"/>
<circle class="st22" cx="1184.2" cy="395.5" r="1.6"/>
<circle class="st22" cx="1177.9" cy="392.4" r="1.6"/>
<circle class="st22" cx="1190.4" cy="392.4" r="1.6"/>
<text transform="matrix(1 0 0 1 1141.3395 429.7188)" class="st16 st13 st17">Certificate Authority</text>
<circle class="st16" cx="1184.2" cy="479.1" r="24.8"/>
<path class="st16" d="M413.7,258.3"/>
<circle class="st23" cx="1184.7" cy="479.1" r="19.7"/>
<ellipse transform="matrix(0.8231 -0.5678 0.5678 0.8231 -73.2302 752.6563)" class="st24" cx="1171.6" cy="493.9" rx="1.5" ry="1.5"/>
<text transform="matrix(1 0 0 1 1160.7355 516.6419)" class="st16 st13 st17">Org C Peer</text>
<text transform="matrix(1 0 0 1 638.5284 379.1097)" class="st12 st13 st14">Org A</text>
<circle class="st16" cx="708.2" cy="391.6" r="23.6"/>
<path class="st21" d="M708.1,394.5v-20.3 M714.3,391.4v-17.2 M701.8,391.4v-17.2 M723,392.7l-14.9-8.6l-14.9,8.6v7.3l14.9,8.6
	L723,400V392.7"/>
<path class="st21" d="M693.2,392.7l14.9,8.6l14.9-8.6"/>
<circle class="st22" cx="708.1" cy="394.5" r="1.6"/>
<circle class="st22" cx="701.8" cy="391.4" r="1.6"/>
<circle class="st22" cx="714.3" cy="391.4" r="1.6"/>
<circle class="st16" cx="708.1" cy="479.1" r="24.8"/>
<path class="st16" d="M413.7,258.3"/>
<circle class="st23" cx="708.6" cy="479.1" r="19.7"/>
<ellipse transform="matrix(0.8231 -0.5678 0.5678 0.8231 -157.4232 482.2858)" class="st24" cx="695.5" cy="493.9" rx="1.5" ry="1.5"/>
<text transform="matrix(1 0 0 1 686.6459 517.6419)" class="st12 st13 st17">Org A Peer</text>
<text transform="matrix(1 0 0 1 637.6481 631.6976)" class="st12 st13 st14">Org B</text>
<text transform="matrix(1 0 0 1 1089.1666 631.8069)" class="st12 st13 st14">Org D</text>
<text transform="matrix(1 0 0 1 1089.4664 379.1097)" class="st12 st13 st14">Org C</text>
<path class="st11" d="M485.6,687.8h105v46.5h-105V687.8z"/>
<text transform="matrix(1 0 0 1 504.3468 713.1224)" class="st12 st13 st14">Client App 2</text>
<path class="st15" d="M485.6,655.8h105v32h-105V655.8z"/>
<text transform="matrix(1 0 0 1 515.0001 674.8109)" class="st16 st13 st17">Fabric SDK</text>
<path class="st11" d="M1345.1,687.5h105V734h-105V687.5z"/>
<text transform="matrix(1 0 0 1 1363.8112 712.7825)" class="st12 st13 st14">Client App 4</text>
<path class="st15" d="M1345.1,655.5h105v32h-105V655.5z"/>
<text transform="matrix(1 0 0 1 1374.4547 674.4808)" class="st16 st13 st17">Fabric SDK</text>
<path class="st11" d="M1344.1,406.2h105v46.5h-105L1344.1,406.2z"/>
<text transform="matrix(1 0 0 1 1362.8112 431.5359)" class="st12 st13 st14">Client App 3</text>
<path class="st15" d="M1344.1,374.2h105v32h-105L1344.1,374.2z"/>
<text transform="matrix(1 0 0 1 1373.4537 393.2342)" class="st16 st13 st17">Fabric SDK</text>
<path class="st25" d="M1211.7,700.3h40.8v27.6c-20.4,0-20.4,10.5-40.8,4.5V700.3z"/>
<text transform="matrix(1 0 0 1 1214.3824 719.9339)" class="st12 st13 st17">Ledger X</text>
<path class="st26" d="M1211.7,735.3h40.8v27.6c-20.4,0-20.4,10.5-40.8,4.5V735.3z"/>
<text transform="matrix(1 0 0 1 1214.4723 754.9954)" class="st12 st13 st17">Ledger Y</text>
<path class="st25" d="M726.6,700.2h40.8v27.6c-20.4,0-20.4,10.5-40.8,4.5V700.2z"/>
<text transform="matrix(1 0 0 1 729.276 719.8441)" class="st12 st13 st17">Ledger X</text>
<path class="st25" d="M725.8,446.6h40.8v27.6c-20.4,0-20.4,10.5-40.8,4.6V446.6z"/>
<text transform="matrix(1 0 0 1 728.5558 465.2562)" class="st12 st13 st17">Ledger X</text>
<path class="st25" d="M1211.9,446.6h40.8v27.6c-20.4,0-20.4,10.5-40.8,4.6V446.6z"/>
<text transform="matrix(1 0 0 1 1214.6617 465.2562)" class="st12 st13 st17">Ledger X</text>
<path class="st25" d="M856.7,580.4h40.8V608c-20.4,0-20.4,10.5-40.8,4.6V580.4z"/>
<text transform="matrix(1 0 0 1 859.4362 599.0775)" class="st12 st13 st17">Ledger X</text>
<path class="st26" d="M930.4,580.4h40.8V608c-20.4,0-20.4,10.5-40.8,4.6V580.4z"/>
<text transform="matrix(1 0 0 1 933.1793 599.0775)" class="st12 st13 st17">Ledger Y</text>
<path class="st27" d="M1184.6,612.7v-76.9"/>
<path class="st28" d="M1133.4,575.1H991.9"/>
<path class="st12" d="M1133.4,553.7h104v42h-104V553.7z"/>
<text transform="matrix(1 0 0 1 1158.3082 579.1907)" class="st13 st14">Channel Y</text>
<path class="st26" d="M1211.9,482.6h40.8v27.6c-20.4,0-20.4,10.5-40.8,4.6V482.6z"/>
<text transform="matrix(1 0 0 1 1214.7526 502.3079)" class="st12 st13 st17">Ledger Y</text>
<path class="st15" d="M1047,445h109.5v58.3H1047V445z"/>
<text transform="matrix(1 0 0 1 1046.2808 477.6693)" class="st12 st13 st29">Collection Org C-Org D</text>
<path class="st15" d="M1047,703.7h109v58.3h-109V703.7z"/>
<text transform="matrix(1 0 0 1 1046.2808 731.3577)" class="st12 st13 st29">Collection Org C-Org D</text>
<text transform="matrix(1 0 0 1 1141.3398 680.719)" class="st16 st13 st17">Certificate Authority</text>
<text transform="matrix(1 0 0 1 871.3397 549.0822)" class="st16 st13 st17">Certificate Authority</text>
<text transform="matrix(1 0 0 1 667.3398 429.7188)" class="st16 st13 st17">Certificate Authority</text>
<text transform="matrix(1 0 0 1 667.34 680.7192)" class="st16 st13 st17">Certificate Authority</text>
</svg>
