<?xml version="1.0" encoding="utf-8"?>
<!-- Generator: Adobe Illustrator 27.0.0, SVG Export Plug-In . SVG Version: 6.00 Build 0)  -->
<svg version="1.1" id="Layer_1" xmlns="http://www.w3.org/2000/svg" xmlns:xlink="http://www.w3.org/1999/xlink" x="0px" y="0px"
	 width="1105.9px" height="801.6px" viewBox="0 0 1105.9 801.6" style="enable-background:new 0 0 1105.9 801.6;"
	 xml:space="preserve">
<style type="text/css">
	.st0{fill:#171717;}
	.st1{clip-path:url(#SVGID_00000008855983700582426560000000312317465240945841_);}
	.st2{fill:#F0F0F0;}
	.st3{clip-path:url(#SVGID_00000040562544932693256880000006806128206910645149_);}
	.st4{fill:#F0F0F0;stroke:#F0F0F0;stroke-width:1.0003;stroke-miterlimit:10.0031;}
	.st5{clip-path:url(#SVGID_00000052073717988075597480000003250879972731720376_);}
	.st6{font-family:'IBMPlexSans-Bold';}
	.st7{font-size:14.0043px;}
	.st8{fill:#282828;stroke:#282828;stroke-width:1.0003;stroke-miterlimit:10.0031;}
	.st9{fill:none;stroke:#6F6F6F;stroke-width:0.7502;stroke-miterlimit:8.0025;}
	.st10{clip-path:url(#SVGID_00000066482540752803755600000016610726954145086095_);}
	.st11{fill:#006161;}
	.st12{fill:#757575;}
	.st13{fill:#FFFFFF;}
	.st14{fill:#282828;}
	.st15{fill:#F3F3F3;}
	.st16{fill:#FFFFFF;stroke:#000000;stroke-width:1.0303;stroke-linecap:round;stroke-miterlimit:10.0031;}
	.st17{fill:#FFFFFF;stroke:#000000;stroke-width:1.0303;stroke-linecap:round;stroke-miterlimit:10.0033;}
	.st18{font-family:'IBMPlexSans';}
	.st19{font-size:12.0037px;}
	.st20{fill:none;stroke:#000000;stroke-width:1.0303;stroke-linecap:round;stroke-linejoin:round;stroke-miterlimit:4.0012;}
	.st21{fill:#F3F3F3;stroke:#000000;stroke-width:1.0303;stroke-linecap:round;stroke-linejoin:round;stroke-miterlimit:4.0012;}
	.st22{fill:none;stroke:#000000;stroke-width:1.0303;stroke-linecap:round;stroke-miterlimit:10.0031;}
	.st23{fill:#F3F3F3;stroke:#000000;stroke-width:1.0303;stroke-miterlimit:10.0031;}
	.st24{font-size:9.0028px;}
	.st25{fill:#F3F3F3;stroke:#000000;stroke-width:1.0302;stroke-miterlimit:10.0026;}
	.st26{fill-rule:evenodd;clip-rule:evenodd;fill:#0F6DFF;}
	.st27{font-size:11.0034px;}
</style>
<path class="st0" d="M44.6,177.4h559.9v478.8H44.6V177.4z"/>
<g>
	<g>
		<g>
			<defs>
				<rect id="SVGID_1_" x="44.6" y="177.4" width="559.9" height="478.8"/>
			</defs>
			<clipPath id="SVGID_00000096055827420257081910000000863312444839532694_">
				<use xlink:href="#SVGID_1_"  style="overflow:visible;"/>
			</clipPath>
			<g style="clip-path:url(#SVGID_00000096055827420257081910000000863312444839532694_);">
				<path class="st0" d="M44.6,177.4h559.9v478.8H44.6V177.4z"/>
				<path class="st0" d="M42.9,662.2l603.1,1.9V159.9L42.9,158V662.2z"/>
			</g>
		</g>
	</g>
</g>
<g>
	<path class="st2" d="M634.3,177.3h458.6v478.9H634.3V177.3z"/>
	<g>
		<g>
			<g>
				<defs>
					<rect id="SVGID_00000046303755134013056920000002542221981301989817_" x="634.3" y="177.3" width="458.6" height="478.9"/>
				</defs>
				<clipPath id="SVGID_00000076603193162144168430000009369421389565357499_">
					<use xlink:href="#SVGID_00000046303755134013056920000002542221981301989817_"  style="overflow:visible;"/>
				</clipPath>
				<g style="clip-path:url(#SVGID_00000076603193162144168430000009369421389565357499_);">
					<path class="st4" d="M634.3,177.3h458.6v478.9H634.3V177.3z"/>
					<path class="st0" d="M632.8,662.2l493.9,1.9V159.8l-493.9-1.9L632.8,662.2L632.8,662.2z"/>
				</g>
			</g>
		</g>
	</g>
</g>
<g>
	<g>
		<g>
			<defs>
				<rect id="SVGID_00000128471615135846602570000002399305758718999685_" x="824.3" y="145.4" width="36" height="24"/>
			</defs>
			<clipPath id="SVGID_00000044884867197211756280000004939057993013932933_">
				<use xlink:href="#SVGID_00000128471615135846602570000002399305758718999685_"  style="overflow:visible;"/>
			</clipPath>
			<g style="clip-path:url(#SVGID_00000044884867197211756280000004939057993013932933_);">
				
					<image style="overflow:visible;enable-background:new    ;" width="38" height="26" xlink:href="../E142FEED7D315AC.png"  transform="matrix(0.9313 0 0 0.9313 824.624 145.258)">
				</image>
			</g>
		</g>
	</g>
</g>
<text transform="matrix(1 0 0 1 882.0713 160.8662)" class="st6 st7">Germany</text>
<path class="st8" d="M697.7,202.3h212.8V377H697.7V202.3z"/>
<path class="st9" d="M963.3,251.2h-52.8 M963.4,536.8h-52.8"/>
<g>
	<g>
		<g>
			<defs>
				<rect id="SVGID_00000036971286406096551310000013387850450947589036_" x="246.8" y="146.4" width="36" height="23"/>
			</defs>
			<clipPath id="SVGID_00000071521641736503377060000012318241117835574670_">
				<use xlink:href="#SVGID_00000036971286406096551310000013387850450947589036_"  style="overflow:visible;"/>
			</clipPath>
			<g style="clip-path:url(#SVGID_00000071521641736503377060000012318241117835574670_);">
				
					<image style="overflow:visible;enable-background:new    ;" width="38" height="25" xlink:href="../E142FEED7D315AB.png"  transform="matrix(0.9294 0 0 0.9294 247.1117 146.2471)">
				</image>
			</g>
		</g>
	</g>
</g>
<text transform="matrix(1 0 0 1 304.5239 161.3662)" class="st6 st7">United States</text>
<path class="st9" d="M697.7,251.2H570.8 M697.7,536.4h-326"/>
<path class="st11" d="M70.9,255.8h105v46.5h-105L70.9,255.8z"/>
<path class="st12" d="M70.9,223.8h105v32h-105L70.9,223.8z"/>
<path class="st13" d="M448.5,230h104v42h-104V230z"/>
<path class="st14" d="M578.2,401.9V294.1h-151v203.2h151V401.9z"/>
<circle class="st15" cx="500.1" cy="438" r="23.6"/>
<path class="st15" d="M0,100"/>
<circle class="st16" cx="488.9" cy="451.2" r="2.6"/>
<circle class="st16" cx="483.6" cy="432.5" r="2.6"/>
<ellipse class="st17" cx="512.2" cy="451.2" rx="2.5" ry="2.5"/>
<circle class="st16" cx="500.5" cy="420.3" r="2.6"/>
<circle class="st16" cx="516.7" cy="432.5" r="2.6"/>
<path class="st9" d="M448.5,251.2h-73.7 M214.9,251.2h-39 M214.9,536.8h-38 M500.3,294.1V272 M500.2,536.8v-39.4"/>
<text transform="matrix(1 0 0 1 444.8271 316.2539)" class="st13 st18 st19">Ordering Service Org</text>
<path class="st8" d="M215.4,454.9h159.5v174.6H215.4V454.9z"/>
<circle class="st15" cx="295.2" cy="485.9" r="23.6"/>
<path class="st20" d="M295.1,488.8v-20.3 M301.3,485.7v-17.2 M288.8,485.7v-17.2 M310,487l-14.9-8.6l-14.9,8.6v7.3l14.9,8.6
	l14.9-8.6V487"/>
<path class="st20" d="M280.2,487l14.9,8.6L310,487"/>
<circle class="st21" cx="295.1" cy="488.8" r="1.6"/>
<circle class="st21" cx="288.8" cy="485.7" r="1.6"/>
<circle class="st21" cx="301.3" cy="485.7" r="1.6"/>
<circle class="st15" cx="295.1" cy="573.4" r="24.8"/>
<path class="st15" d="M0,100"/>
<circle class="st22" cx="295.6" cy="573.4" r="19.7"/>
<circle class="st23" cx="282.5" cy="588.2" r="1.5"/>
<text transform="matrix(1 0 0 1 273.998 612.0254)" class="st13 st18 st24">Org B Peer</text>
<ellipse transform="matrix(0.4899 -0.8718 0.8718 0.4899 -52.3673 616.3312)" class="st15" cx="500.5" cy="352.9" rx="23.6" ry="23.6"/>
<path class="st21" d="M500.4,355.8v-20.3 M506.6,352.7v-17.2 M494.1,352.7v-17.2"/>
<path class="st15" d="M515.3,354l-14.9-8.6l-14.9,8.6v7.3l14.9,8.6l14.9-8.6V354"/>
<path class="st20" d="M515.3,354l-14.9-8.6l-14.9,8.6v7.3l14.9,8.6l14.9-8.6V354"/>
<path class="st15" d="M485.5,354l14.9,8.6l14.9-8.6"/>
<path class="st20" d="M485.5,354l14.9,8.6l14.9-8.6"/>
<circle class="st21" cx="500.4" cy="355.8" r="1.6"/>
<circle class="st21" cx="494.1" cy="352.7" r="1.6"/>
<circle class="st21" cx="506.6" cy="352.7" r="1.6"/>
<path class="st8" d="M697.5,455h212.8v174.6H697.5V455z M211.9,202.3h159.8V377H211.9V202.3z"/>
<circle class="st15" cx="802.3" cy="487" r="23.6"/>
<path class="st20" d="M802.2,489.9v-20.3 M808.4,486.8v-17.2 M795.9,486.8v-17.2 M817.1,488.1l-14.9-8.6l-14.9,8.6v7.3l14.9,8.6
	l14.9-8.6V488.1"/>
<path class="st20" d="M787.3,488.1l14.9,8.6l14.9-8.6"/>
<circle class="st21" cx="802.2" cy="489.9" r="1.6"/>
<circle class="st21" cx="795.9" cy="486.8" r="1.6"/>
<circle class="st21" cx="808.4" cy="486.8" r="1.6"/>
<circle class="st15" cx="802.2" cy="574.5" r="24.8"/>
<path class="st15" d="M0,100"/>
<circle class="st22" cx="802.7" cy="574.5" r="19.7"/>
<ellipse class="st25" cx="789.6" cy="589.3" rx="1.5" ry="1.5"/>
<text transform="matrix(1 0 0 1 89.6479 281.2832)" class="st13 st18 st19">Client App 1</text>
<text transform="matrix(1 0 0 1 102.3018 242.7715)" class="st15 st18 st24">Fabric SDK</text>
<text transform="matrix(1 0 0 1 473.4058 255.5151)" class="st18 st19">Channel X</text>
<text transform="matrix(1 0 0 1 779.6777 612.0254)" class="st15 st18 st24">Org D Peer</text>
<circle class="st15" cx="802.6" cy="234.3" r="23.6"/>
<path class="st20" d="M802.5,237.2v-20.3 M808.7,234.1v-17.2 M796.2,234.1v-17.2 M817.4,235.4l-14.9-8.6l-14.9,8.6v7.3l14.9,8.6
	l14.9-8.6V235.4"/>
<path class="st20" d="M787.6,235.4l14.9,8.6l14.9-8.6"/>
<circle class="st21" cx="802.5" cy="237.2" r="1.6"/>
<circle class="st21" cx="796.2" cy="234.1" r="1.6"/>
<circle class="st21" cx="808.7" cy="234.1" r="1.6"/>
<circle class="st15" cx="802.5" cy="320.8" r="24.8"/>
<path class="st15" d="M0,100"/>
<circle class="st22" cx="803" cy="320.8" r="19.7"/>
<ellipse class="st25" cx="789.9" cy="335.6" rx="1.5" ry="1.5"/>
<circle class="st15" cx="294.5" cy="233.3" r="23.6"/>
<path class="st20" d="M294.4,236.2v-20.3 M300.6,233.1v-17.2 M288.1,233.1v-17.2 M309.3,234.4l-14.9-8.6l-14.9,8.6v7.3l14.9,8.6
	l14.9-8.6V234.4"/>
<path class="st20" d="M279.5,234.4l14.9,8.6l14.9-8.6"/>
<circle class="st21" cx="294.4" cy="236.2" r="1.6"/>
<circle class="st21" cx="288.1" cy="233.1" r="1.6"/>
<circle class="st21" cx="300.6" cy="233.1" r="1.6"/>
<circle class="st15" cx="294.4" cy="320.8" r="24.8"/>
<circle class="st22" cx="294.9" cy="320.8" r="19.7"/>
<ellipse class="st25" cx="281.8" cy="335.6" rx="1.5" ry="1.5"/>
<path class="st11" d="M71.9,529.5h105V576h-105L71.9,529.5z"/>
<path class="st12" d="M71.9,497.5h105v32h-105L71.9,497.5z"/>
<path class="st11" d="M963.4,529.2h105v46.5h-105V529.2z"/>
<path class="st12" d="M963.4,497.2h105v32h-105V497.2z"/>
<path class="st11" d="M962.4,247.9h105v46.5h-105V247.9z"/>
<path class="st12" d="M962.4,215.9h105v32h-105V215.9z"/>
<path class="st26" d="M820,542h40.8v27.6c-20.4,0-20.4,10.5-40.8,4.5V542z"/>
<path class="st26" d="M312.9,541.9h40.8v27.6c-20.4,0-20.4,10.5-40.8,4.5V541.9z"/>
<path class="st26" d="M312.1,288.3h40.8v27.6c-20.4,0-20.4,10.5-40.8,4.6V288.3z"/>
<path class="st26" d="M820.2,288.3H861v27.6c-20.4,0-20.4,10.5-40.8,4.6V288.3z"/>
<path class="st26" d="M443,422.1h40.8v27.6c-20.4,0-20.4,10.5-40.8,4.6V422.1z"/>
<path class="st12" d="M646.2,545.4h116.4v58.3H646v-58.3H646.2z"/>
<path class="st12" d="M646,291.7h116.9V350H646V291.7z"/>
<text transform="matrix(1 0 0 1 781.5415 358.3369)" class="st15 st18 st24">Org C Peer</text>
<text transform="matrix(1 0 0 1 224.8296 220.8047)" class="st13 st18 st19">Org A</text>
<text transform="matrix(1 0 0 1 452.5524 478.3996)" class="st13 st18 st24">Ordering Service Nodes</text>
<text transform="matrix(1 0 0 1 762.3391 271.4585)" class="st15 st18 st24">Certificate Authority</text>
<text transform="matrix(1 0 0 1 762.3391 527.1927)" class="st15 st18 st24">Certificate Authority</text>
<text transform="matrix(1 0 0 1 254.1391 529.5004)" class="st15 st18 st24">Certificate Authority</text>
<text transform="matrix(1 0 0 1 254.5396 271.3501)" class="st13 st18 st24">Certificate Authority</text>
<text transform="matrix(1 0 0 1 459.8537 391.4191)" class="st13 st18 st24">Certificate Authority</text>
<text transform="matrix(1 0 0 1 272.8522 357.65)" class="st13 st18 st24">Org A Peer</text>
<text transform="matrix(1 0 0 1 223.9492 473.3921)" class="st13 st18 st19">Org B</text>
<text transform="matrix(1 0 0 1 700.4678 473.5024)" class="st13 st18 st19">Org D</text>
<text transform="matrix(1 0 0 1 700.7681 220.8047)" class="st13 st18 st19">Org C</text>
<text transform="matrix(1 0 0 1 90.6479 554.8174)" class="st13 st18 st19">Client App 2</text>
<text transform="matrix(1 0 0 1 101.3013 516.5054)" class="st15 st18 st24">Fabric SDK</text>
<text transform="matrix(1 0 0 1 982.1123 554.4775)" class="st13 st18 st19">Client App 4</text>
<text transform="matrix(1 0 0 1 992.7559 516.1753)" class="st15 st18 st24">Fabric SDK</text>
<text transform="matrix(1 0 0 1 981.1118 273.231)" class="st13 st18 st19">Client App 3</text>
<text transform="matrix(1 0 0 1 991.7554 234.9292)" class="st15 st18 st24">Fabric SDK</text>
<text transform="matrix(1 0 0 1 822.6831 561.6289)" class="st13 st18 st24">Ledger X</text>
<text transform="matrix(1 0 0 1 315.5771 561.5391)" class="st13 st18 st24">Ledger X</text>
<text transform="matrix(1 0 0 1 314.8569 306.9512)" class="st13 st18 st24">Ledger X</text>
<text transform="matrix(1 0 0 1 822.9634 306.9512)" class="st13 st18 st24">Ledger X</text>
<text transform="matrix(1 0 0 1 445.7373 440.7725)" class="st13 st18 st24">Ledger X</text>
<text transform="matrix(1 0 0 1 649.5427 323.7988)" class="st13 st18 st27">CollectionOrg C-Org D</text>
<text transform="matrix(1 0 0 1 649.2733 579.5003)" class="st13 st18 st27">Collection Org C-Org D</text>
</svg>
