<?xml version="1.0" encoding="utf-8"?>
<!-- Generator: Adobe Illustrator 27.0.0, SVG Export Plug-In . SVG Version: 6.00 Build 0)  -->
<svg version="1.1" id="Layer_1" xmlns="http://www.w3.org/2000/svg" xmlns:xlink="http://www.w3.org/1999/xlink" x="0px" y="0px"
	 width="1920px" height="1080px" viewBox="0 0 1920 1080" style="enable-background:new 0 0 1920 1080;" xml:space="preserve">
<style type="text/css">
	.st0{fill-rule:evenodd;clip-rule:evenodd;fill:#979797;}
	.st1{fill:#FFFFFF;}
	.st2{font-family:'IBMPlexSans';}
	.st3{font-size:20px;}
	.st4{fill-rule:evenodd;clip-rule:evenodd;fill:#010F5E;}
	.st5{fill:#08CAEB;}
	.st6{font-size:24.07px;}
	.st7{fill-rule:evenodd;clip-rule:evenodd;fill:#FFFFFF;}
	.st8{fill:none;stroke:#08CAEB;stroke-dasharray:8;}
	.st9{fill-rule:evenodd;clip-rule:evenodd;fill:#FFFFFF;stroke:#6182BB;}
	.st10{fill:none;}
	.st11{fill-rule:evenodd;clip-rule:evenodd;fill:#0039C8;}
	.st12{font-size:17px;}
	.st13{font-size:18px;}
	.st14{fill:none;stroke:#6182BB;}
	.st15{opacity:0.5;fill-rule:evenodd;clip-rule:evenodd;fill:#FFFFFF;}
	.st16{font-size:9.07px;}
	.st17{font-family:'IBMPlexSans-Bold';}
	.st18{font-size:10px;}
	.st19{font-size:12.07px;}
</style>
<path class="st0" d="M601.8,931.3h701.6v-23l22.4,46l-22.4,46.1v-23H601.8V931.3z"/>
<text transform="matrix(1 0 0 1 741.8267 963.0392)" class="st1 st2 st3">Increasing blockchain high availability</text>
<path class="st4" d="M934.4,888.1H625.6c-6.6,0-12-4.8-12-10.7V259.9c0-5.9,5.4-10.7,12-10.7h308.9c6.6,0,12,4.8,12,10.7v617.5
	C946.4,883.3,941,888.1,934.4,888.1z"/>
<ellipse class="st5" cx="613.4" cy="249.8" rx="19.9" ry="20.5"/>
<text transform="matrix(1 0 0 1 606.3967 258.2292)" class="st2 st6">1</text>
<path class="st4" d="M1311.7,888.1h-308.9c-6.6,0-12-5-12-11V113.9c0-6.1,5.4-11,12-11h308.9c6.6,0,12,5,12,11V877
	C1323.7,883.2,1318.3,888.1,1311.7,888.1z"/>
<path class="st7" d="M1295.1,867.3h-275.7c-6.6,0-12-4.9-12-10.9V170.8c0-6,5.4-10.9,12-10.9H1295c6.6,0,12,4.9,12,10.9v685.6
	C1307.1,862.4,1301.7,867.3,1295.1,867.3L1295.1,867.3z"/>
<path class="st8" d="M1280.7,846.6h-246.9c-6.6,0-12-5.1-12-11.3V197.9c0-6.2,5.4-11.3,12-11.3h246.9c6.6,0,12,5.1,12,11.3v637.5
	C1292.7,841.5,1287.3,846.6,1280.7,846.6L1280.7,846.6z"/>
<path class="st9" d="M1267.7,826.9h-221c-7.1,0-12.8-5.4-12.8-12V286.1c0-6.6,5.8-12,12.8-12h221c7.1,0,12.8,5.4,12.8,12v528.8
	C1280.5,821.5,1274.7,826.9,1267.7,826.9z"/>
<path class="st10" d="M1042,286.2h230.4v23.3H1042L1042,286.2z"/>
<text transform="matrix(1 0 0 1 1091.0967 304.0892)" class="st2 st6">Worker Pool</text>
<path class="st10" d="M1058.8,107.6h196.9v34h-196.9V107.6z M1074.8,342.8h166.5v23.3h-166.5V342.8z M1076.2,394.5h163.6v37.7
	h-163.6V394.5z"/>
<path class="st7" d="M917.8,867.3H642.2c-6.6,0-12-4.7-12-10.5V315.4c0-5.8,5.4-10.5,12-10.5h275.6c6.6,0,12,4.7,12,10.5v541.4
	C929.8,862.6,924.4,867.3,917.8,867.3L917.8,867.3z"/>
<path class="st8" d="M903.4,846.6H656.6c-6.6,0-12-4.8-12-10.8V340.3c0-5.9,5.4-10.8,12-10.8h246.9c6.6,0,12,4.8,12,10.8v495.6
	C915.4,841.8,910,846.6,903.4,846.6z"/>
<path class="st10" d="M664.8,403.8h230.4v23.3H664.8V403.8z"/>
<text transform="matrix(1 0 0 1 713.8867 421.6892)" class="st2 st6">Worker Pool</text>
<path class="st10" d="M676.1,270.5h214.6v34H676.1V270.5z"/>
<text transform="matrix(1 0 0 1 737.1367 285.4692)" class="st1 st2 st6">Region 1</text>
<text transform="matrix(1 0 0 1 706.1667 369.3692)" class="st2 st6">Single Cluster</text>
<path class="st11" d="M880.9,814H678.6c-7.6,0-13.9-6-13.9-13.3l-1-354.8c0-7.3,6.2-13.3,13.9-13.3h202.3c7.6,0,13.9,6,13.9,13.3
	l1,354.8C894.8,808,888.5,814,880.9,814z"/>
<text transform="matrix(1 0 0 1 723.1067 458.2292)" class="st1 st2 st12">Worker Node</text>
<path class="st10" d="M694.2,664.1h163.6v37.7H694.2V664.1z"/>
<text transform="matrix(1 0 0 1 1081.0967 227.7393)" class="st2 st6">Single Cluster</text>
<ellipse class="st5" cx="990" cy="100.8" rx="19.9" ry="20.5"/>
<text transform="matrix(1 0 0 1 982.9766 109.2692)" class="st2 st6">2</text>
<path class="st10" d="M1074.8,514.3h166.5v23.3h-166.5V514.3z M1074.8,685.8h166.5v23.3h-166.5V685.8z M1069.2,570.5h37v37.7h-37
	V570.5z"/>
<text transform="matrix(1 0 0 1 1091.9066 256.2892)" class="st2 st13">+ anti-affinity</text>
<path class="st11" d="M1258.3,475.5h-202.2c-7.6,0-13.9-6-13.9-13.3V328.7c0-7.3,6.2-13.3,13.9-13.3h202.2c7.6,0,13.9,6,13.9,13.3
	v133.4C1272.2,469.5,1266,475.5,1258.3,475.5L1258.3,475.5z"/>
<path class="st14" d="M890.4,826.3h-221c-7.1,0-12.9-4.2-12.9-9.4v-415c0-5.2,5.8-9.4,12.9-9.4h221c7.1,0,12.8,4.2,12.8,9.4v415
	C903.2,822,897.4,826.3,890.4,826.3z"/>
<text transform="matrix(1 0 0 1 1100.5566 336.7992)" class="st1 st2 st12">Worker Node 1</text>
<path class="st15" d="M1158.7,404.4h-48.8c-2.3,0-4.1-4.3-4.1-9.6V364c0-5.3,1.8-9.6,4.1-9.6h48.8c2.3,0,4.1,4.3,4.1,9.6v30.8
	C1162.8,400.1,1161,404.4,1158.7,404.4z"/>
<text transform="matrix(1 0 0 1 1112.3066 381.8592)" class="st2 st16">Peers</text>
<text transform="matrix(1 0 0 1 1111.9966 398.5992)" class="st17 st18">R2</text>
<text transform="matrix(1 0 0 1 1111.9966 369.4392)" class="st2 st19">CA 1</text>
<path class="st7" d="M1180.6,398.3h-52.5c-2.4,0-4.4-4.3-4.4-9.6v-30.8c0-5.3,2-9.6,4.4-9.6h52.5c2.4,0,4.4,4.3,4.4,9.6v30.8
	C1185,394,1183,398.3,1180.6,398.3z"/>
<text transform="matrix(1 0 0 1 1129.8567 392.8704)" class="st17 st18">R1</text>
<path class="st7" d="M1098.5,398.3h-50.3c-2.3,0-4.2-4.3-4.2-9.6v-30.8c0-5.3,1.9-9.6,4.2-9.6h50.3c2.3,0,4.2,4.3,4.2,9.6v30.8
	C1102.7,394,1100.8,398.3,1098.5,398.3z"/>
<path class="st7" d="M1265.1,398.3h-66.5c-3.1,0-5.6-4.3-5.6-9.6v-30.8c0-5.3,2.5-9.6,5.6-9.6h66.5c3.1,0,5.6,4.3,5.6,9.6v30.8
	C1270.6,394,1268.1,398.3,1265.1,398.3z"/>
<text transform="matrix(1 0 0 1 1219.8167 392.7394)" class="st2 st16">(Raft)</text>
<text transform="matrix(1 0 0 1 1195.1055 363.0198)" class="st2 st18">Ordering Node 1</text>
<path class="st15" d="M781.5,531.7h-48.7c-2.3,0-4.1-4.3-4.1-9.6v-30.8c0-5.3,1.8-9.6,4.1-9.6h48.7c2.3,0,4.1,4.3,4.1,9.6v30.8
	C785.7,527.4,783.8,531.7,781.5,531.7z"/>
<text transform="matrix(1 0 0 1 734.8766 509.1192)" class="st2 st16">Peers</text>
<text transform="matrix(1 0 0 1 734.8766 525.8592)" class="st17 st18">R2</text>
<text transform="matrix(1 0 0 1 734.8766 496.6892)" class="st2 st19">CA 1</text>
<path class="st7" d="M799.1,525.6h-52.7c-2.4,0-4.4-4.3-4.4-9.6v-30.8c0-5.3,2-9.6,4.4-9.6h52.7c2.4,0,4.4,4.3,4.4,9.6V516
	C803.5,521.2,801.6,525.6,799.1,525.6z"/>
<text transform="matrix(1 0 0 1 752.7367 516.8701)" class="st17 st18">R1</text>
<text transform="matrix(1 0 0 1 743.7367 490.6449)" class="st2 st19">CA 1 Peers</text>
<path class="st7" d="M721.3,525.6h-51c-2.4,0-4.3-4.3-4.3-9.6v-30.8c0-5.3,1.9-9.6,4.3-9.6h51c2.4,0,4.3,4.3,4.3,9.6V516
	C725.6,521.2,723.7,525.6,721.3,525.6z"/>
<path class="st7" d="M885.9,525.6h-68.2c-3.2,0-5.7-4.3-5.7-9.6v-30.8c0-5.3,2.6-9.6,5.7-9.6h68.2c3.2,0,5.7,4.3,5.7,9.6V516
	C891.6,521.2,889,525.6,885.9,525.6z"/>
<text transform="matrix(1 0 0 1 840.6216 517.2592)" class="st2 st16">(Raft)</text>
<text transform="matrix(1 0 0 1 815.1053 490.02)" class="st2 st18">Ordering Node 1</text>
<path class="st11" d="M1258.3,644.9h-202.2c-7.6,0-13.9-6-13.9-13.3V498.1c0-7.3,6.2-13.3,13.9-13.3h202.2c7.6,0,13.9,6,13.9,13.3
	v133.4C1272.2,638.9,1266,644.9,1258.3,644.9L1258.3,644.9z"/>
<text transform="matrix(1 0 0 1 1100.5566 506.1892)" class="st1 st2 st12">Worker Node 2</text>
<path class="st15" d="M1158.7,573.8h-48.8c-2.3,0-4.1-4.3-4.1-9.6v-30.8c0-5.3,1.8-9.6,4.1-9.6h48.8c2.3,0,4.1,4.3,4.1,9.6v30.8
	C1162.8,569.5,1161,573.8,1158.7,573.8z"/>
<text transform="matrix(1 0 0 1 1111.9966 551.2492)" class="st2 st16">Peers</text>
<text transform="matrix(1 0 0 1 1111.9966 567.9992)" class="st17 st18">R2</text>
<text transform="matrix(1 0 0 1 1111.9966 538.8292)" class="st2 st19">CA 1</text>
<path class="st7" d="M1180.6,567.7h-52.5c-2.4,0-4.4-4.3-4.4-9.6v-30.8c0-5.3,2-9.6,4.4-9.6h52.5c2.4,0,4.4,4.3,4.4,9.6v30.8
	C1185,563.4,1183,567.7,1180.6,567.7z"/>
<text transform="matrix(1 0 0 1 1129.8567 560.87)" class="st17 st18">R1</text>
<path class="st7" d="M1098.5,567.7h-50.3c-2.3,0-4.2-4.3-4.2-9.6v-30.8c0-5.3,1.9-9.6,4.2-9.6h50.3c2.3,0,4.2,4.3,4.2,9.6v30.8
	C1102.7,563.4,1100.8,567.7,1098.5,567.7z"/>
<path class="st15" d="M781.5,591h-48.7c-2.3,0-4.1-4.3-4.1-9.6v-30.8c0-5.3,1.8-9.6,4.1-9.6h48.7c2.3,0,4.1,4.3,4.1,9.6v30.8
	C785.7,586.7,783.8,591,781.5,591z"/>
<text transform="matrix(1 0 0 1 734.8766 568.4092)" class="st2 st16">Peers</text>
<text transform="matrix(1 0 0 1 734.8766 585.1492)" class="st17 st18">R2</text>
<text transform="matrix(1 0 0 1 734.8766 555.9792)" class="st2 st19">CA 1</text>
<path class="st7" d="M799.2,584.8h-51.8c-2.4,0-4.4-4.3-4.4-9.6v-30.8c0-5.3,2-9.6,4.4-9.6h51.8c2.4,0,4.4,4.3,4.4,9.6v30.8
	C803.5,580.5,801.6,584.8,799.2,584.8z"/>
<text transform="matrix(1 0 0 1 752.7367 575.8705)" class="st17 st18">R1</text>
<text transform="matrix(1 0 0 1 744.7367 549.6449)" class="st2 st19">CA 2 Peers</text>
<path class="st7" d="M721.3,584.8h-51c-2.4,0-4.3-4.3-4.3-9.6v-30.8c0-5.3,1.9-9.6,4.3-9.6h51c2.4,0,4.3,4.3,4.3,9.6v30.8
	C725.6,580.5,723.7,584.8,721.3,584.8z"/>
<text transform="matrix(1 0 0 1 666.628 549.6449)" class="st2 st19">Peer2 Org1</text>
<path class="st7" d="M1265.1,567.7h-66.5c-3.1,0-5.6-4.3-5.6-9.6v-30.8c0-5.3,2.5-9.6,5.6-9.6h66.5c3.1,0,5.6,4.3,5.6,9.6v30.8
	C1270.6,563.4,1268.1,567.7,1265.1,567.7z"/>
<text transform="matrix(1 0 0 1 1219.8066 560.7391)" class="st2 st16">(Raft)</text>
<text transform="matrix(1 0 0 1 1195.1055 533.0198)" class="st2 st18">Ordering Node 3</text>
<path class="st7" d="M885.9,641.8h-68.2c-3.2,0-5.7-4.3-5.7-9.6v-30.8c0-5.3,2.6-9.6,5.7-9.6h68.2c3.2,0,5.7,4.3,5.7,9.6v30.8
	C891.6,637.5,889,641.8,885.9,641.8z"/>
<text transform="matrix(1 0 0 1 840.6216 633.5492)" class="st2 st16">(Raft)</text>
<text transform="matrix(1 0 0 1 815.1053 606.5292)" class="st2 st18">Ordering Node 3</text>
<path class="st7" d="M1265.1,629.1h-66.5c-3.1,0-5.6-4.3-5.6-9.6v-30.8c0-5.3,2.5-9.6,5.6-9.6h66.5c3.1,0,5.6,4.3,5.6,9.6v30.8
	C1270.6,624.8,1268.1,629.1,1265.1,629.1z"/>
<text transform="matrix(1 0 0 1 1194.8066 591.7692)" class="st2 st18">Ordering Node 2</text>
<text transform="matrix(1 0 0 1 1219.8066 620.9592)" class="st2 st16">(Raft)</text>
<path class="st7" d="M885.9,583.7h-68.2c-3.2,0-5.7-4.3-5.7-9.6v-30.8c0-5.3,2.6-9.6,5.7-9.6h68.2c3.2,0,5.7,4.3,5.7,9.6v30.8
	C891.6,579.4,889,583.7,885.9,583.7z"/>
<text transform="matrix(1 0 0 1 815.1053 549.0198)" class="st2 st18">Ordering Node 2</text>
<text transform="matrix(1 0 0 1 840.622 575.7391)" class="st2 st16">(Raft)</text>
<path class="st11" d="M1258.3,814.3h-202.2c-7.6,0-13.9-6-13.9-13.3V667.5c0-7.3,6.2-13.3,13.9-13.3h202.2c7.6,0,13.9,6,13.9,13.3
	V801C1272.2,808.3,1266,814.3,1258.3,814.3L1258.3,814.3z"/>
<text transform="matrix(1 0 0 1 1100.5566 675.5892)" class="st1 st2 st12">Worker Node 3</text>
<path class="st7" d="M1265.1,737.1h-66.5c-3.1,0-5.6-4.3-5.6-9.6v-30.8c0-5.3,2.5-9.6,5.6-9.6h66.5c3.1,0,5.6,4.3,5.6,9.6v30.8
	C1270.6,732.8,1268.1,737.1,1265.1,737.1z"/>
<text transform="matrix(1 0 0 1 1219.8066 728.7892)" class="st2 st16">(Raft)</text>
<text transform="matrix(1 0 0 1 1195.8066 699.7692)" class="st2 st18">Ordering Node 4</text>
<path class="st7" d="M885.9,700h-68.2c-3.2,0-5.7-4.3-5.7-9.6v-30.8c0-5.3,2.6-9.6,5.7-9.6h68.2c3.2,0,5.7,4.3,5.7,9.6v30.8
	C891.6,695.7,889,700,885.9,700z"/>
<text transform="matrix(1 0 0 1 840.6216 691.6992)" class="st2 st16">(Raft)</text>
<text transform="matrix(1 0 0 1 815.1053 662.6792)" class="st2 st18">Ordering Node 4</text>
<path class="st7" d="M1265.1,798.5h-66.5c-3.1,0-5.6-4.3-5.6-9.6v-30.8c0-5.3,2.5-9.6,5.6-9.6h66.5c3.1,0,5.6,4.3,5.6,9.6v30.8
	C1270.6,794.2,1268.1,798.5,1265.1,798.5z"/>
<text transform="matrix(1 0 0 1 1194.8066 761.1693)" class="st2 st18">Ordering Node 5</text>
<text transform="matrix(1 0 0 1 1219.8066 790.5792)" class="st2 st16">(Raft)</text>
<path class="st7" d="M885.9,758.1h-68.2c-3.2,0-5.7-4.3-5.7-9.6v-30.8c0-5.3,2.6-9.6,5.7-9.6h68.2c3.2,0,5.7,4.3,5.7,9.6v30.8
	C891.6,753.8,889,758.1,885.9,758.1z"/>
<text transform="matrix(1 0 0 1 815.1053 720.8292)" class="st2 st18">Ordering Node 5</text>
<text transform="matrix(1 0 0 1 840.6216 749.8892)" class="st2 st16">(Raft)</text>
<path class="st10" d="M1043.8,124.2h214.6v34h-214.6V124.2z"/>
<text transform="matrix(1 0 0 1 1104.8867 139.1292)" class="st1 st2 st6">Region 1</text>
<text transform="matrix(1 0 0 1 666.628 490.645)" class="st2 st19">Peer1 Org1</text>
<text transform="matrix(1 0 0 1 1044.1279 363.6452)" class="st2 st19">Peer1 Org1</text>
<text transform="matrix(1 0 0 1 1125.0977 363.645)" class="st2 st19">CA 1 Peers</text>
<text transform="matrix(1 0 0 1 1125.0977 533.645)" class="st2 st19">CA 2 Peers</text>
<text transform="matrix(1 0 0 1 1044.1279 533.6448)" class="st2 st19">Peer2 Org1</text>
</svg>
