<?xml version="1.0" encoding="utf-8"?>
<!-- Generator: Adobe Illustrator 27.0.1, SVG Export Plug-In . SVG Version: 6.00 Build 0)  -->
<svg version="1.1" id="Layer_1" xmlns="http://www.w3.org/2000/svg" xmlns:xlink="http://www.w3.org/1999/xlink" x="0px" y="0px"
	 width="1018.6px" height="774px" viewBox="0 0 1018.6 774" style="enable-background:new 0 0 1018.6 774;" xml:space="preserve">
<style type="text/css">
	.st0{fill:#DCDCDC;stroke:#DCDCDC;}
	.st1{fill:#5A6872;}
	.st2{fill:#011688;stroke:#857B7B;}
	.st3{fill:#FFFFFF;}
	.st4{font-family:'IBMPlexSans-Medium';}
	.st5{font-size:19px;}
	.st6{fill:#FFFFFF;stroke:#FFFFFF;}
	.st7{fill:#010F5E;}
	.st8{font-size:16px;}
	.st9{fill:#0CCAEB;}
	.st10{font-size:14px;}
	.st11{fill:#FFFFFF;stroke:#979797;}
	.st12{fill:none;stroke:#001588;}
	.st13{fill:none;stroke:#FFFFFF;}
	.st14{fill:none;stroke:#12C3F4;stroke-width:2;}
	.st15{font-size:12px;}
</style>
<path id="Rectangle" class="st0" d="M53.1,120.1h936.1v548H53.1L53.1,120.1z"/>
<g id="UI-Icon_checkmark--outline_ui-05">
	<path id="Oval-2" class="st1" d="M320.3,282.1c3.6,0,6.5-2.9,6.5-6.5s-2.9-6.5-6.5-6.5s-6.5,2.9-6.5,6.5l0,0
		C313.8,279.1,316.7,282.1,320.3,282.1C320.3,282.1,320.3,282.1,320.3,282.1z M320.3,283.6c-4.4,0-8-3.6-8-8s3.6-8,8-8s8,3.6,8,8
		S324.8,283.6,320.3,283.6z"/>
	<path id="check" class="st1" d="M323.6,272.3l1.4,1.4l-5.9,5.9l-3.5-3.4l1.4-1.4l2.1,2L323.6,272.3z"/>
</g>
<path id="Rectangle-2" class="st2" d="M77.8,163.1H493v151H77.8L77.8,163.1z"/>
<text transform="matrix(1 0 0 1 96.5554 197.561)" class="st3 st4 st5">Org 1</text>
<path id="Rectangle-3" class="st6" d="M393.5,151.1h126.2v35H393.5V151.1z"/>
<text transform="matrix(1 0 0 1 427.5413 174.561)" class="st7 st4 st8">Org1 CA</text>
<path id="Rectangle-4" class="st6" d="M302.8,219.1h163v55h-163V219.1z"/>
<text transform="matrix(1 0 0 1 312.8456 253.561)" class="st7 st4 st8">Org1 MSP definition</text>
<path id="Rectangle-5" class="st2" d="M75.8,484.1H493v151H75.8L75.8,484.1z"/>
<text transform="matrix(1 0 0 1 94.5554 518.561)" class="st3 st4 st5">Org 2</text>
<path id="Rectangle-6" class="st6" d="M94.8,542.1h105v61h-105V542.1z"/>
<text transform="matrix(1 0 0 1 107.4655 578.561)" class="st7 st4 st8">Peer Org2</text>
<path id="Rectangle-7" class="st6" d="M393.5,472.1h126.2v35H393.5V472.1z"/>
<text transform="matrix(1 0 0 1 426.6614 495.561)" class="st7 st4 st8">Org2 CA</text>
<path id="Rectangle-8" class="st6" d="M302.8,543.1h163v55h-163V543.1z"/>
<text transform="matrix(1 0 0 1 312.3452 578.561)" class="st7 st4 st8">Org2 MSP definition</text>
<path id="Rectangle-9" class="st6" d="M98.8,217.1h105v61h-105V217.1z"/>
<g id="Group-3">
	<path id="Fill-1" class="st9" d="M194.2,239.6h64.3v39c-32.1,0-32.1,14.9-64.3,6.4L194.2,239.6z"/>
</g>
<g id="Group-3-Copy">
	<path id="Fill-1-2" class="st9" d="M194.2,570.6h63.4v39c-31.7,0-31.7,14.9-63.5,6.4L194.2,570.6z"/>
</g>
<text transform="matrix(1 0 0 1 111.4655 253.561)" class="st7 st4 st8">Peer Org1</text>
<text transform="matrix(1 0 0 1 199.8452 267.5612)" class="st3 st4 st10">Ledger X</text>
<text transform="matrix(1 0 0 1 198.5497 597.529)" class="st3 st4 st10">Ledger X</text>
<ellipse id="Oval" class="st11" cx="314.8" cy="401.1" rx="194.5" ry="51.5"/>
<text transform="matrix(1 0 0 1 272.0955 412.561)" class="st7 st4 st5">Channel 1</text>
<path id="Rectangle-10" class="st2" d="M531.7,282.7H959v214.5H531.7V282.7z"/>
<text transform="matrix(1 0 0 1 544.6199 317.1797)" class="st3 st4 st5">Ordering Service Org</text>
<path id="Rectangle-11" class="st6" d="M782.4,276.8H972v35H782.4V276.8z"/>
<text transform="matrix(1 0 0 1 806.4976 300.25)" class="st7 st4 st8">Ordering service CA</text>
<path id="Rectangle-12" class="st6" d="M712.8,367.8h240v55h-240V367.8z"/>
<text transform="matrix(1 0 0 1 718.2734 402.0151)" class="st7 st4 st8">Ordering service MSP definition</text>
<path id="Fill-1-3" class="st3" d="M546.7,333.7h159.5v136.5H546.7V333.7z"/>
<path id="Stroke-3" class="st12" d="M546.7,470.2h159.5V333.7H546.7V470.2z"/>
<path class="st13" d="M147.3,278.1v95 M149.3,428.1v111"/>
<circle class="st14" cx="626.4" cy="415.2" r="32.1"/>
<circle class="st7" cx="595.6" cy="408.7" r="8.3"/>
<circle class="st7" cx="626.4" cy="385.1" r="8.3"/>
<circle class="st7" cx="657.1" cy="408.7" r="8.3"/>
<circle class="st7" cx="608.2" cy="443" r="8.3"/>
<circle class="st7" cx="643.1" cy="443" r="8.3"/>
<text transform="matrix(1 0 0 1 563.1699 359.6097)" class="st7 st4 st15">Ordering service nodes</text>
</svg>
